# xmcd
#
# Track frame offsets:
#	150
#	5429
#	14864
#	20861
#	26249
#	30142
#	35108
#	36890
#	39318
#	44274
#	49419
#	61431
#	64746
#	67905
#	72237
#	77347
#	89865
#	104043
#	110154
#	113414
#	116253
#	116855
#	118038
#	123660
#	127522
#	133942
#	141208
#	145939
#	149735
#	155918
#	161761
#
# Disc length: 2184 seconds
#
# Revision: 0
# Processed by: cddbd v1.5.2PL0 Copyright (c) Steve Scherf et al.
# Submitted via: EZCDAudioConverter 2.1.7.1
#
DISCID=d608861f
DTITLE=Eric Siday - Ultra Sonic Perception
DYEAR=1900
DGENRE=
TTITLE0=Ultimate
TTITLE1=Moonscape
TTITLE2=Galaxy
TTITLE3=Suspended Animation
TTITLE4=The Power Plant 1
TTITLE5=The Power Plant 2 
TTITLE6=The Power Plant 3
TTITLE7=The Power Plant 4
TTITLE8=The Machines 1
TTITLE9=The Machines 2
TTITLE10=Concerto To The Stars
TTITLE11=Telecommunications
TTITLE12=Telecommunications 2
TTITLE13=The Laboratory
TTITLE14=The Laboratory 2
TTITLE15=Pavane
TTITLE16=Pizzicato Piano
TTITLE17=Challenge Of Space
TTITLE18=Spacedrift
TTITLE19=Meteors
TTITLE20=Star
TTITLE21=Comet
TTITLE22=Transmutations 1
TTITLE23=Transmutations 2
TTITLE24=Transmutations 3
TTITLE25=Sidereal Vibrations
TTITLE26=Plenipotentiary
TTITLE27=Chromatic Aberration
TTITLE28=Fallout
TTITLE29=Fallout Aftermath
TTITLE30=Eclipse
EXTD=
EXTT0=
EXTT1=
EXTT2=
EXTT3=
EXTT4=
EXTT5=
EXTT6=
EXTT7=
EXTT8=
EXTT9=
EXTT10=
EXTT11=
EXTT12=
EXTT13=
EXTT14=
EXTT15=
EXTT16=
EXTT17=
EXTT18=
EXTT19=
EXTT20=
EXTT21=
EXTT22=
EXTT23=
EXTT24=
EXTT25=
EXTT26=
EXTT27=
EXTT28=
EXTT29=
EXTT30=
PLAYORDER=
